<svg width="284" height="388" viewBox="0 0 284 388" fill="none" xmlns="http://www.w3.org/2000/svg">
<g filter="url(#filter0_d_1_138)">
<circle cx="142.15" cy="245.901" r="91.8217" fill="#40A5D7"/>
</g>
<path d="M93.9474 128.305C40.0186 187.128 42.8677 248.196 56.067 276.317C49.9035 243.099 86.2432 187.128 93.9474 183.668C86.243 200.969 93.9474 228.65 117.06 218.27C140.173 207.889 132.468 214.81 117.06 183.668C104.734 158.754 127.861 204.035 138.133 198.268C135.565 205.189 124.383 155.986 149.037 183.668C173.69 211.349 160.717 226.344 151.729 235.571H232.622C234.546 228.684 226.459 209.965 232.622 176.747C238.785 143.53 222.35 119.078 213.362 111.004C219.525 149.758 197.953 164.06 186.397 166.367C167.907 135.917 181.261 107.544 190.249 97.163C177.923 102.699 159.433 120.231 151.729 128.305C151.729 107.544 167.137 114.464 174.841 72.9417C181.004 39.7238 138.888 10.6582 117.06 0.277588C140.173 24.4989 147.876 69.4815 93.9474 128.305Z" fill="#40A5D7"/>
<path d="M106.505 226.062C112.171 220.077 120.746 217.042 131.986 217.042V217.042C134.217 217.042 136.025 218.851 136.025 221.081V224.827C136.025 226.749 134.664 228.401 132.778 228.769V228.769C127.244 229.848 123.395 231.969 121.335 235.082V235.082C119.595 237.796 122.256 240.654 125.481 240.654H131.986C133.057 240.654 134.084 241.068 134.842 241.806C135.599 242.544 136.025 243.545 136.025 244.589V272.136C136.025 276.476 132.402 280.006 127.947 280.006H103.714C102.643 280.006 101.615 279.591 100.858 278.853C100.1 278.115 99.6748 277.114 99.6748 276.071V256.395L99.6869 244.908C99.6506 244.471 98.8832 234.121 106.505 226.062ZM172.375 280.006H148.141C147.07 280.006 146.043 279.591 145.286 278.853C144.528 278.115 144.103 277.114 144.103 276.071V256.395L144.115 244.908C144.078 244.471 143.311 234.121 150.932 226.062C156.599 220.077 165.173 217.042 176.414 217.042V217.042C178.644 217.042 180.453 218.851 180.453 221.081V224.827C180.453 226.749 179.091 228.401 177.205 228.769V228.769C171.672 229.848 167.823 231.969 165.763 235.082V235.082C164.023 237.796 166.684 240.654 169.909 240.654H176.414C177.485 240.654 178.512 241.068 179.27 241.806C180.027 242.544 180.453 243.545 180.453 244.589V272.136C180.453 276.476 176.83 280.006 172.375 280.006Z" fill="#FCFCFC"/>
<defs>
<filter id="filter0_d_1_138" x="0.328125" y="104.079" width="283.643" height="283.643" filterUnits="userSpaceOnUse" color-interpolation-filters="sRGB">
<feFlood flood-opacity="0" result="BackgroundImageFix"/>
<feColorMatrix in="SourceAlpha" type="matrix" values="0 0 0 0 0 0 0 0 0 0 0 0 0 0 0 0 0 0 127 0" result="hardAlpha"/>
<feOffset/>
<feGaussianBlur stdDeviation="25"/>
<feComposite in2="hardAlpha" operator="out"/>
<feColorMatrix type="matrix" values="0 0 0 0 0 0 0 0 0 0 0 0 0 0 0 0 0 0 0.05 0"/>
<feBlend mode="normal" in2="BackgroundImageFix" result="effect1_dropShadow_1_138"/>
<feBlend mode="normal" in="SourceGraphic" in2="effect1_dropShadow_1_138" result="shape"/>
</filter>
</defs>
</svg>
