<svg width="24" height="18" viewBox="0 0 24 18" fill="none" xmlns="http://www.w3.org/2000/svg">
<path fill-rule="evenodd" clip-rule="evenodd" d="M22.7465 1.98309C23.1139 2.3619 23.3749 2.83097 23.5031 3.34292C23.8453 5.24006 24.0114 7.16477 23.9993 9.09249C24.0061 10.9914 23.84 12.887 23.5031 14.7558C23.3749 15.2677 23.1139 15.7368 22.7465 16.1156C22.3791 16.4944 21.9181 16.7695 21.4103 16.9132C19.5549 17.4094 12.1334 17.4094 12.1334 17.4094C12.1334 17.4094 4.71178 17.4094 2.85639 16.9132C2.3589 16.7771 1.90494 16.5149 1.53835 16.1521C1.17176 15.7893 0.904941 15.3381 0.763673 14.8421C0.421468 12.9449 0.255358 11.0202 0.267462 9.09249C0.258008 7.17918 0.424108 5.26903 0.763673 3.38607C0.891812 2.87412 1.15278 2.40505 1.52023 2.02624C1.88767 1.64743 2.34858 1.3723 2.85639 1.22863C4.71178 0.732422 12.1334 0.732422 12.1334 0.732422C12.1334 0.732422 19.5549 0.732422 21.4103 1.18548C21.9181 1.32915 22.3791 1.60429 22.7465 1.98309ZM15.9089 9.11321L9.70626 12.6406V5.5858L15.9089 9.11321Z" fill="white"/>
</svg>
