<svg width="17" height="17" viewBox="0 0 17 17" fill="none" xmlns="http://www.w3.org/2000/svg">
<path d="M16.1107 12.5831V14.8625C16.1116 15.0741 16.0682 15.2836 15.9835 15.4774C15.8987 15.6713 15.7744 15.8454 15.6184 15.9884C15.4625 16.1315 15.2784 16.2404 15.078 16.3082C14.8775 16.3759 14.6651 16.4011 14.4544 16.3821C12.1164 16.128 9.87059 15.3291 7.89743 14.0495C6.06165 12.883 4.50524 11.3266 3.33871 9.49082C2.05466 7.5087 1.25556 5.25197 1.00617 2.90348C0.98718 2.69337 1.01215 2.48161 1.07949 2.28169C1.14682 2.08176 1.25505 1.89804 1.39728 1.74224C1.53951 1.58643 1.71262 1.46194 1.90559 1.3767C2.09857 1.29147 2.30718 1.24734 2.51814 1.24714H4.7975C5.16623 1.24351 5.5237 1.37409 5.80327 1.61453C6.08285 1.85496 6.26546 2.18886 6.31707 2.55398C6.41328 3.28342 6.5917 3.99964 6.84892 4.68897C6.95115 4.96092 6.97327 5.25647 6.91267 5.5406C6.85207 5.82474 6.7113 6.08554 6.50702 6.29212L5.54209 7.25705C6.62369 9.15921 8.19865 10.7342 10.1008 11.8158L11.0657 10.8508C11.2723 10.6466 11.5331 10.5058 11.8173 10.4452C12.1014 10.3846 12.3969 10.4067 12.6689 10.5089C13.3582 10.7662 14.0744 10.9446 14.8039 11.0408C15.173 11.0929 15.51 11.2788 15.751 11.5631C15.9919 11.8475 16.12 12.2105 16.1107 12.5831Z" stroke="white" stroke-linecap="round" stroke-linejoin="round"/>
</svg>
