<svg width="87" height="63" viewBox="0 0 87 63" fill="none" xmlns="http://www.w3.org/2000/svg">
<path d="M63 55C59.8 54.6 59.6667 59.5 60 62C57 60 54 55 48 52.5C43.2 50.5 40.3333 42.6667 39.5 39C48.3 32.6 48.8333 22 48 17.5C50.4 14.3 59 13.5 63 13.5C70.5 13.6667 85.5 18 85.5 34C85.5 54 67 55.5 63 55Z" fill="#828385"/>
<path fill-rule="evenodd" clip-rule="evenodd" d="M19.4286 0.0936684C18.1374 0.231661 16.038 0.719562 14.6603 1.20219C7.39721 3.74638 2.02344 9.79271 0.344642 17.3097C-0.114312 19.3641 -0.114994 24.4262 0.343279 26.4865C2.08765 34.3298 7.70953 40.4698 15.3527 42.8792C17.5017 43.5566 19.549 43.8192 22.6919 43.8198L25.5294 43.8205L25.5869 46.5275C25.6384 48.9439 25.6821 49.285 25.9955 49.7032C26.4102 50.2569 27.1029 50.525 27.7199 50.3704C27.9917 50.3024 29.7025 48.692 32.1501 46.2005C35.3302 42.9632 36.3607 42.0191 37.2405 41.5365C37.8471 41.2038 38.3689 40.9315 38.3998 40.9315C38.431 40.9315 38.6299 41.4096 38.8419 41.9936C40.0579 45.3422 42.7113 49.2586 43.7642 49.2586C43.9357 49.2586 44.2779 49.1001 44.5246 48.9063C45.2678 48.3231 45.1374 47.6926 43.9473 46.1147C42.8148 44.6135 41.408 41.8988 40.9685 40.3666C40.8121 39.8223 40.7106 39.3604 40.7426 39.3404C41.3441 38.9634 43.52 36.8489 44.2932 35.8897C45.489 34.4063 45.6299 33.7267 44.8652 33.1266C44.1316 32.5507 43.792 32.6741 42.6774 33.9215C40.361 36.5141 38.3758 38.1015 35.8624 39.3711C35.0652 39.7737 34.1296 40.6 31.6066 43.1283C29.8279 44.911 28.3144 46.3696 28.2433 46.3696C28.1721 46.3696 28.1138 45.6012 28.1138 44.6617C28.1138 41.5139 27.9314 41.4014 22.5791 41.253C19.1306 41.1574 18.4632 41.0919 16.9973 40.7067C15.0622 40.1981 12.6242 39.0897 10.88 37.9258C8.2865 36.1953 5.63871 33.0915 4.27053 30.178C-1.24135 18.4407 6.01898 4.85015 18.917 2.76072C20.986 2.4256 28.3568 2.44157 30.4837 2.7857C34.5033 3.43624 37.822 5.11747 40.8624 8.04334C46.0842 13.0687 48.0381 20.3209 46.0519 27.3051C45.6372 28.7634 45.6176 28.9546 45.8427 29.3546C46.191 29.9741 46.9124 30.2004 47.4968 29.8738C48.7456 29.1758 49.6193 23.7452 49.2308 19.0941L49.1457 18.0744L50.9338 17.1874C54.2812 15.5267 56.5904 15.1015 62.2586 15.1015C67.9609 15.1015 70.2444 15.5253 73.6686 17.2196C75.9069 18.327 77.3292 19.3716 79.0581 21.1772C82.3963 24.6641 84.1655 28.7632 84.4303 33.6241C84.8709 41.7127 79.8878 49.4874 72.34 52.4877C69.6494 53.5571 68.7407 53.7106 64.3874 53.83C60.9121 53.9254 60.3155 53.9815 59.8551 54.2564C58.9419 54.8013 58.7675 55.2975 58.7675 57.3516V59.1893L55.319 55.7801C52.1067 52.6044 51.7565 52.3109 50.2058 51.4945C49.2903 51.0126 48.3516 50.6182 48.1196 50.6182C47.1099 50.6182 46.6285 52.0674 47.4001 52.7842C47.6109 52.9798 48.3964 53.4582 49.1457 53.847C50.3882 54.4918 50.8677 54.92 54.5968 58.7147C58.3864 62.571 58.7365 62.8821 59.3835 62.9688C59.9894 63.0499 60.1578 62.9941 60.6592 62.5472L61.2369 62.0322L61.297 59.2141L61.3571 56.3962H64.2975C68.8104 56.3962 71.4941 55.8163 74.8958 54.1062C84.4298 49.3132 89.0968 38.5501 86.098 28.2718C83.9926 21.0559 77.9477 15.2245 70.5966 13.3187C68.105 12.6727 65.7664 12.4994 60.939 12.6027C55.4871 12.7194 53.4307 13.1268 49.9648 14.7764C49.1976 15.1416 48.5374 15.4404 48.4975 15.4404C48.4577 15.4404 48.2514 14.9625 48.0394 14.3782C45.7932 8.18983 40.6222 3.21837 34.22 1.09207C31.4961 0.187306 29.554 -0.0286886 24.4306 0.00292048C22.0073 0.0178753 19.7564 0.0588305 19.4286 0.0936684ZM23.0049 14.4115C20.8734 14.798 19.2583 16.1951 19.2583 17.6523C19.2583 18.3771 19.493 18.7542 20.0999 19.005C20.831 19.3072 21.352 19.1155 21.885 18.3479C22.4327 17.5594 23.1065 17.2412 24.1941 17.2575C25.9926 17.2847 26.8851 18.4507 26.1673 19.8357C26.0335 20.0942 25.3402 20.827 24.6266 21.4643C23.0158 22.9028 22.6328 23.6072 22.5303 25.3189C22.4611 26.4721 22.4925 26.6549 22.814 26.9758C23.075 27.2363 23.3875 27.3362 23.9415 27.3362C24.9689 27.3362 25.3891 26.9202 25.3891 25.9028C25.3891 24.7295 25.6423 24.298 27.2405 22.7478C29.3155 20.7352 29.9486 19.244 29.4784 17.478C29.1903 16.3951 27.8332 15.1012 26.5796 14.714C25.4037 14.3507 23.9967 14.2317 23.0049 14.4115ZM52.4043 25.3093C51.7838 25.7964 51.7838 26.6668 52.4043 27.1539C52.7977 27.4628 53.0886 27.5062 54.7655 27.5062C56.4424 27.5062 56.7333 27.4628 57.1267 27.1539C57.4521 26.8985 57.5754 26.6451 57.5754 26.2316C57.5754 25.8182 57.4521 25.5648 57.1267 25.3093C56.7333 25.0004 56.4424 24.9571 54.7655 24.9571C53.0886 24.9571 52.7977 25.0004 52.4043 25.3093ZM59.3106 25.3036C58.8096 25.7694 58.8096 26.6939 59.3106 27.1597C59.667 27.4912 59.8884 27.5062 64.4272 27.5062H69.1712L69.5891 27.089C69.819 26.8596 70.0072 26.4738 70.0072 26.2316C70.0072 25.9895 69.819 25.6037 69.5891 25.3743L69.1712 24.9571H64.4272C59.8884 24.9571 59.667 24.972 59.3106 25.3036ZM22.5621 29.7834C22.0875 30.257 21.9831 30.4898 21.9831 31.0749C21.9831 31.66 22.0875 31.8929 22.5621 32.3665C23.599 33.4013 25.119 33.1209 25.6753 31.7921C26.2165 30.4999 25.3289 29.2056 23.9015 29.2056C23.2637 29.2056 23.0476 29.2989 22.5621 29.7834ZM52.2962 31.4148C52.107 31.6036 51.9556 31.9812 51.9556 32.2645C51.9556 32.5478 52.107 32.9254 52.2962 33.1142C52.6303 33.4477 52.8638 33.4541 64.4601 33.4541H76.2836L76.6364 33.0063C77.0818 32.4414 77.0818 32.0876 76.6364 31.5227L76.2836 31.0749H64.4601C52.8638 31.0749 52.6303 31.0814 52.2962 31.4148ZM52.4043 35.8457C51.7838 36.3327 51.7838 37.2032 52.4043 37.6902C52.8483 38.0388 52.9748 38.0425 64.5032 38.0425H76.1535L76.5714 37.6253C77.1042 37.0937 77.1042 36.4422 76.5714 35.9106L76.1535 35.4934H64.5032C52.9748 35.4934 52.8483 35.4971 52.4043 35.8457ZM52.2962 40.4217C51.5586 41.1577 52.051 42.3391 53.1807 42.5443C53.4903 42.6005 58.7892 42.624 64.9557 42.5963L76.1676 42.546L76.5785 42.0691C77.0819 41.485 77.0961 41.1125 76.6364 40.5296L76.2836 40.0818H64.4601C52.8638 40.0818 52.6303 40.0883 52.2962 40.4217ZM52.2962 44.8402C51.8658 45.2696 51.859 46.043 52.281 46.5632L52.6063 46.9644L58.4659 47.0132C64.2064 47.061 64.3348 47.0547 64.7821 46.7034C65.137 46.4249 65.2389 46.1983 65.2389 45.6871C65.2389 44.4942 65.2734 44.5003 58.5593 44.5003C52.8638 44.5003 52.6237 44.5134 52.2962 44.8402Z" fill="white"/>
</svg>
