<svg width="87" height="87" viewBox="0 0 87 87" fill="none" xmlns="http://www.w3.org/2000/svg">
<path d="M62.4353 3.07061C68.167 -0.204689 71.647 1.7059 72.6706 3.07061L63.4588 13.8176L66.5294 20.9823L74.7176 23.0294L83.9294 13.8176L84.9529 14.3294C88.2282 30.7059 73.0117 33.4353 64.9941 32.7529L24.0529 73.6941C24.0529 79.8353 15.3529 93.1412 3.07053 80.347C-3.07061 67.0412 9.04112 61.7529 15.3529 61.4117L54.7588 23.0294C52.7118 14.8412 55.2706 7.16472 62.4353 3.07061Z" fill="#828385"/>
<path d="M49.6411 35.8235L36.3353 49.1294L39.9176 53.2235H41.4529C49.6411 51.1765 49.3 58.5118 48.1059 62.4353L68.5764 82.9059C75.127 87 78.1294 85.2941 78.8117 83.9294L81.8823 80.8588C87.2047 75.9459 85.4647 71.6471 83.9294 70.1118L61.4117 48.1059C52.4047 49.3341 52.8823 43.5 54.247 40.4294L49.6411 35.8235Z" fill="#40A5D7"/>
<path d="M14.8412 18.9353L40.4294 44.5235L45.0353 39.9176L18.4236 12.7941L16.8883 7.67645L5.62944 1.53528L1.02356 5.6294L8.18827 17.4L14.8412 18.9353Z" fill="#B1B1B1"/>
<circle cx="13.3059" cy="73.6941" r="5.11765" fill="#B1B1B1"/>
<path fill-rule="evenodd" clip-rule="evenodd" d="M71.3776 0.0772897C71.5178 0.107037 71.9239 0.178941 72.2802 0.237246C73.1924 0.386492 74.1664 1.31087 74.4396 2.28675C74.8632 3.79962 74.7331 3.98694 69.8442 8.90818C67.0996 11.6708 65.4109 13.4986 65.3404 13.7834C65.2549 14.1274 65.4813 14.8374 66.2639 16.6806C66.8341 18.0233 67.4305 19.2519 67.5893 19.4109C67.7482 19.5696 68.9769 20.1661 70.3196 20.7362C72.1628 21.5189 72.8728 21.7453 73.2169 21.6598C73.5016 21.5892 75.3294 19.9006 78.092 17.156C82.9718 12.3084 83.2349 12.1229 84.6394 12.5437C85.5355 12.8121 86.4307 13.6146 86.7084 14.3987C87.0909 15.4779 86.9908 19.6563 86.5391 21.4658C84.8807 28.1109 79.7009 33.0399 72.8225 34.5183C71.4957 34.8035 67.5276 34.7644 66.1611 34.4529L65.1092 34.2128L59.8024 39.5216L54.4955 44.8304L54.7122 45.3533C55.0002 46.0485 56.0509 46.978 56.845 47.2401C57.6528 47.5069 58.9034 47.3668 59.8002 46.9092C60.8173 46.3904 61.9497 46.4419 62.8875 47.0496C63.3031 47.3188 68.5822 52.5012 74.6186 58.5661C84.6224 68.617 85.6401 69.6906 86.1177 70.6977C87.3115 73.2147 87.294 75.5943 86.064 78.0525C85.4291 79.3209 79.5112 85.2716 78.1775 85.9824C75.7189 87.2929 73.2692 87.3372 70.6977 86.1178C69.6891 85.6396 68.6177 84.6219 58.4108 74.4486C50.9013 66.9638 47.119 63.0765 46.8943 62.6122C46.4475 61.6894 46.4727 60.8651 46.9847 59.6487C47.2191 59.0917 47.408 58.313 47.4059 57.9115C47.3991 56.5839 46.4571 55.1611 45.2938 54.7215C44.7932 54.5323 44.7883 54.5369 35.4347 63.892L26.0765 73.2518L26.0252 74.6167C25.8166 80.1669 21.8566 85.0501 16.3023 86.6063C14.6118 87.0799 11.3631 87.0469 9.59759 86.5383C7.25315 85.8629 5.71529 84.9421 3.87843 83.114C2.48046 81.7226 2.1359 81.262 1.45715 79.8769C0.483139 77.8898 0.161522 76.6957 0.0357361 74.6011C-0.395348 67.425 5.30206 61.2015 12.5196 60.9641L13.7514 60.9236L23.8667 50.8083L33.9822 40.693L23.4849 30.2161L12.9876 19.7393L10.9478 19.3641C8.34853 18.8863 7.4709 18.5093 6.56573 17.4821C5.45589 16.2228 0.143166 7.11569 0.0311432 6.28038C-0.132721 5.0587 0.306015 4.31417 2.40822 2.24783C4.46148 0.229766 5.09144 -0.128052 6.30463 0.0346235C7.10509 0.142054 16.7033 5.79457 17.6942 6.74223C18.5206 7.53249 18.8968 8.4822 19.3607 10.948L19.7444 12.9878L30.2184 23.4849L40.6925 33.982L46.7399 27.9363L52.7871 21.8908L52.5473 20.8389C52.2357 19.4726 52.1966 15.5044 52.4819 14.1777C52.8344 12.5374 53.3539 11.0435 54.0743 9.59832C54.9487 7.84424 55.5353 7.00605 56.9084 5.54826C59.5939 2.6971 62.9298 0.917526 66.8528 0.243365C68.1826 0.0149053 70.6538 -0.0758668 71.3776 0.0772897ZM66.9342 3.14195C61.4051 4.18515 57.0218 8.30456 55.5535 13.8377C55.0446 15.7555 55.0417 18.9133 55.5472 20.7918C55.7461 21.5313 55.9089 22.294 55.9089 22.4866C55.9089 22.7208 53.727 25.0214 49.3257 29.4279L42.7425 36.0191L43.9248 37.2105L45.1069 38.4018L46.5558 36.9632C47.9074 35.6213 48.8584 35.0009 49.5641 35.0009C49.7264 35.0009 50.8954 33.9743 52.1618 32.7198C53.4973 31.3967 54.6551 30.3909 54.9189 30.3248C55.8848 30.0827 56.9203 31.1045 56.68 32.0623C56.6198 32.3022 55.684 33.404 54.6006 34.5108L52.6308 36.5231L53.7255 37.6834C54.3276 38.3217 54.9237 39.094 55.0503 39.3998L55.2807 39.9554L59.7243 35.5234C62.1683 33.0857 64.2924 31.0912 64.4446 31.0912C64.5969 31.0912 65.3967 31.2554 66.2221 31.456C68.2783 31.9558 70.9091 31.9542 72.9925 31.4519C79.455 29.894 84.1291 23.9605 84.1229 17.3224C84.1207 15.0905 84.3988 14.9423 79.5563 19.759C75.3493 23.9439 75.1685 24.0999 74.199 24.3806C72.814 24.7816 72.1006 24.6454 69.254 23.4366C65.3067 21.7606 65.2396 21.6934 63.5635 17.7462C62.3548 14.8996 62.2186 14.1862 62.6196 12.8012C62.9003 11.8318 63.0561 11.6511 67.248 7.43696C70.6324 4.03454 71.5163 3.05815 71.2693 2.99457C70.5603 2.81218 68.2684 2.8902 66.9342 3.14195ZM4.33671 4.38505L2.83234 5.89656L5.75439 10.7634C7.3616 13.4402 8.84336 15.7353 9.04717 15.864C9.25116 15.9925 10.4072 16.302 11.6165 16.5519C12.8258 16.8016 14.0497 17.1229 14.3363 17.2655C14.6229 17.4083 20.6133 23.2734 27.6483 30.2993L40.4392 43.0733L41.7563 41.7564L43.0732 40.4394L30.2991 27.6485C23.2733 20.6135 17.4065 14.6202 17.2619 14.33C17.1174 14.0397 16.7881 12.7823 16.5301 11.5358C16.2092 9.98419 15.9518 9.14803 15.7143 8.88438C15.4235 8.56158 6.19686 2.89989 5.92964 2.88017C5.88103 2.8766 5.16419 3.55382 4.33671 4.38505ZM43.7551 43.8399L37.8077 49.7891L39.1169 51.0981L40.426 52.4073L41.4955 52.033C42.0838 51.827 42.9141 51.6122 43.3404 51.5554C44.2627 51.4325 45.8735 51.7361 46.8023 52.2078C47.9092 52.7701 49.1884 54.1128 49.7259 55.2764C50.1561 56.2079 50.2142 56.5266 50.2125 57.9489C50.211 59.2865 50.1405 59.7199 49.8015 60.4736L49.3925 61.3837L60.3425 72.3032C69.0141 80.9506 71.4694 83.3071 72.1425 83.6282C73.3889 84.2228 75.3755 84.1998 76.5622 83.577C77.6637 82.999 83.0838 77.5575 83.6341 76.4772C84.2011 75.3643 84.201 73.3252 83.6339 72.1426C83.3123 71.4715 80.9276 68.9879 72.305 60.3426L61.3837 49.3927L60.4736 49.8017C59.7198 50.1406 59.2864 50.2111 57.9488 50.2127C56.5231 50.2144 56.2088 50.1567 55.266 49.7214C52.2304 48.3195 50.8219 44.8207 51.9899 41.5827L52.4057 40.4304L51.1442 39.1604C50.4505 38.4621 49.8423 37.8906 49.7929 37.8906C49.7432 37.8906 47.0263 40.5677 43.7551 43.8399ZM25.3952 53.3593L14.8512 63.8983H13.179C10.1545 63.8983 7.90844 64.8084 5.84431 66.8704C1.87463 70.8359 1.90694 77.0713 5.91774 81.0823C9.92872 85.0931 16.1641 85.1254 20.1297 81.1557C22.2029 79.0802 23.1017 76.8719 23.1017 73.8532V72.1506L31.5335 63.7125L39.9653 55.2745L39.4263 55.0867C39.1298 54.9833 38.355 54.385 37.7047 53.757L36.5219 52.6152L31.2877 57.8319C26.2978 62.8048 26.0238 63.0484 25.4198 63.0484C24.5553 63.0484 23.9517 62.4445 23.9517 61.5796C23.9517 60.9739 24.2005 60.6958 29.4762 55.4042C32.9323 51.9377 35.0021 49.7381 35.0045 49.5288C35.0125 48.8178 35.6982 47.7809 37.0219 46.4789L38.4001 45.1233L37.2575 43.9717C36.629 43.3383 36.0752 42.8202 36.0271 42.8202C35.9788 42.8202 31.1944 47.5628 25.3952 53.3593ZM69.9037 63.1759C74.847 68.1075 78.9865 72.3595 79.1029 72.6244C79.531 73.6001 78.8556 74.6074 77.7733 74.6074C77.3028 74.6074 76.2458 73.6077 68.0221 65.384C59.581 56.9429 58.7987 56.1132 58.7987 55.602C58.7987 54.8131 59.4387 54.2092 60.2745 54.2092C60.8948 54.2092 61.2132 54.5056 69.9037 63.1759ZM65.3839 68.0222C73.6076 76.2459 74.6073 77.3028 74.6073 77.7734C74.6073 78.8557 73.6 79.531 72.6243 79.103C72.3594 78.9865 68.1076 74.8471 63.1758 69.9037C54.5055 61.2133 54.2091 60.8949 54.2091 60.2746C54.2091 59.4388 54.813 58.7988 55.6019 58.7988C56.1131 58.7988 56.9428 59.5811 65.3839 68.0222ZM15.4143 67.1138C15.9078 67.2963 16.5644 67.6023 16.874 67.7935C17.7955 68.3632 19.1785 69.9486 19.6663 70.9947C20.0774 71.8762 20.1226 72.1656 20.1246 73.931C20.127 75.819 20.1061 75.9317 19.5456 77.0701C18.4783 79.2383 16.5276 80.6843 14.111 81.0988C9.40211 81.9062 5.09451 77.5932 5.90279 72.8798C6.3218 70.4365 7.80968 68.4361 9.95931 67.4262C10.9811 66.9462 11.3184 66.8761 12.8176 66.8318C14.1744 66.7918 14.6985 66.8486 15.4143 67.1138ZM11.4523 69.9241C10.0011 70.5305 8.96848 71.8684 8.7361 73.4435C8.34327 76.1045 10.8956 78.6568 13.5565 78.2639C16.3316 77.8544 17.9315 75.2642 17.1155 72.5023C16.8597 71.6364 15.4368 70.163 14.6025 69.9C13.7376 69.6275 12.1331 69.6397 11.4523 69.9241Z" fill="#D5F0FD"/>
</svg>
